<mxfile host="app.diagrams.net" agent="Mozilla/5.0 (Windows NT 10.0; Win64; x64) AppleWebKit/537.36 (KHTML, like Gecko) Chrome/132.0.0.0 Safari/537.36" version="26.0.12">
  <diagram name="Page-1" id="-JnIxL8mik93PCZ9Enep">
    <mxGraphModel grid="1" page="1" gridSize="10" guides="1" tooltips="1" connect="1" arrows="1" fold="1" pageScale="1" pageWidth="850" pageHeight="1100" math="0" shadow="0">
      <root>
        <mxCell id="0" />
        <mxCell id="1" parent="0" />
        <mxCell id="WkEdtH8r3RqwmbnHuu7d-1" value="" style="rounded=0;whiteSpace=wrap;html=1;" vertex="1" parent="1">
          <mxGeometry y="80" width="160" height="40" as="geometry" />
        </mxCell>
        <mxCell id="WkEdtH8r3RqwmbnHuu7d-2" value="&lt;font style=&quot;font-size: 15px;&quot;&gt;Lietotājs&lt;/font&gt;" style="text;html=1;align=center;verticalAlign=middle;whiteSpace=wrap;rounded=0;" vertex="1" parent="1">
          <mxGeometry y="80" width="160" height="40" as="geometry" />
        </mxCell>
        <mxCell id="WkEdtH8r3RqwmbnHuu7d-3" value="" style="rounded=0;whiteSpace=wrap;html=1;" vertex="1" parent="1">
          <mxGeometry x="320" y="80" width="160" height="40" as="geometry" />
        </mxCell>
        <mxCell id="WkEdtH8r3RqwmbnHuu7d-4" value="&lt;font style=&quot;font-size: 15px;&quot;&gt;Programma&lt;/font&gt;" style="text;html=1;align=center;verticalAlign=middle;whiteSpace=wrap;rounded=0;" vertex="1" parent="1">
          <mxGeometry x="320" y="80" width="160" height="40" as="geometry" />
        </mxCell>
        <mxCell id="WkEdtH8r3RqwmbnHuu7d-5" value="" style="rounded=0;whiteSpace=wrap;html=1;" vertex="1" parent="1">
          <mxGeometry x="640" y="80" width="160" height="40" as="geometry" />
        </mxCell>
        <mxCell id="WkEdtH8r3RqwmbnHuu7d-6" value="&lt;font style=&quot;font-size: 15px;&quot;&gt;Tīkla AP/upuris&lt;/font&gt;" style="text;html=1;align=center;verticalAlign=middle;whiteSpace=wrap;rounded=0;" vertex="1" parent="1">
          <mxGeometry x="640" y="80" width="160" height="40" as="geometry" />
        </mxCell>
        <mxCell id="WkEdtH8r3RqwmbnHuu7d-7" value="" style="endArrow=none;dashed=1;html=1;rounded=0;entryX=0.5;entryY=1;entryDx=0;entryDy=0;" edge="1" parent="1" target="WkEdtH8r3RqwmbnHuu7d-2">
          <mxGeometry width="50" height="50" relative="1" as="geometry">
            <mxPoint x="80" y="640" as="sourcePoint" />
            <mxPoint x="410" y="170" as="targetPoint" />
          </mxGeometry>
        </mxCell>
        <mxCell id="WkEdtH8r3RqwmbnHuu7d-8" value="" style="endArrow=none;dashed=1;html=1;rounded=0;entryX=0.5;entryY=1;entryDx=0;entryDy=0;" edge="1" parent="1" target="WkEdtH8r3RqwmbnHuu7d-4">
          <mxGeometry width="50" height="50" relative="1" as="geometry">
            <mxPoint x="400" y="640" as="sourcePoint" />
            <mxPoint x="399.55" y="120" as="targetPoint" />
          </mxGeometry>
        </mxCell>
        <mxCell id="WkEdtH8r3RqwmbnHuu7d-9" value="" style="endArrow=none;dashed=1;html=1;rounded=0;entryX=0.5;entryY=1;entryDx=0;entryDy=0;" edge="1" parent="1" target="WkEdtH8r3RqwmbnHuu7d-6">
          <mxGeometry width="50" height="50" relative="1" as="geometry">
            <mxPoint x="720" y="640" as="sourcePoint" />
            <mxPoint x="719.55" y="120" as="targetPoint" />
          </mxGeometry>
        </mxCell>
        <mxCell id="WkEdtH8r3RqwmbnHuu7d-10" value="&lt;b&gt;&lt;font style=&quot;font-size: 14px;&quot;&gt;PMKID uzbrukums (PMKID noķeršana, lai uzlauztu WPA-2 tīklu paroles)&lt;/font&gt;&lt;/b&gt;" style="text;html=1;align=center;verticalAlign=middle;whiteSpace=wrap;rounded=0;" vertex="1" parent="1">
          <mxGeometry x="80" y="20" width="640" height="40" as="geometry" />
        </mxCell>
        <mxCell id="WkEdtH8r3RqwmbnHuu7d-11" value="" style="endArrow=classic;html=1;rounded=0;" edge="1" parent="1">
          <mxGeometry width="50" height="50" relative="1" as="geometry">
            <mxPoint x="80" y="160" as="sourcePoint" />
            <mxPoint x="400" y="160" as="targetPoint" />
          </mxGeometry>
        </mxCell>
        <mxCell id="WkEdtH8r3RqwmbnHuu7d-12" value="Nosūta, kurus AP mēģināt Uzlauzt" style="text;html=1;align=center;verticalAlign=middle;whiteSpace=wrap;rounded=0;" vertex="1" parent="1">
          <mxGeometry x="80" y="130" width="320" height="30" as="geometry" />
        </mxCell>
        <mxCell id="WkEdtH8r3RqwmbnHuu7d-26" value="" style="endArrow=classic;html=1;rounded=0;" edge="1" parent="1">
          <mxGeometry width="50" height="50" relative="1" as="geometry">
            <mxPoint x="400" y="520" as="sourcePoint" />
            <mxPoint x="80" y="520" as="targetPoint" />
          </mxGeometry>
        </mxCell>
        <mxCell id="WkEdtH8r3RqwmbnHuu7d-27" value="Paziņo, ka ir izdevies uzlauzt un un atgriež paroli lietotājam" style="text;html=1;align=center;verticalAlign=middle;whiteSpace=wrap;rounded=0;flipV=1;flipH=1;" vertex="1" parent="1">
          <mxGeometry x="80" y="490" width="320" height="30" as="geometry" />
        </mxCell>
        <mxCell id="WkEdtH8r3RqwmbnHuu7d-30" value="Autentifikācija, Asociācija" style="text;html=1;align=center;verticalAlign=middle;whiteSpace=wrap;rounded=0;" vertex="1" parent="1">
          <mxGeometry x="400" y="170" width="320" height="30" as="geometry" />
        </mxCell>
        <mxCell id="WkEdtH8r3RqwmbnHuu7d-31" value="" style="endArrow=classic;startArrow=classic;html=1;rounded=0;" edge="1" parent="1">
          <mxGeometry width="50" height="50" relative="1" as="geometry">
            <mxPoint x="400" y="200" as="sourcePoint" />
            <mxPoint x="720" y="200" as="targetPoint" />
          </mxGeometry>
        </mxCell>
        <mxCell id="WkEdtH8r3RqwmbnHuu7d-32" value="" style="endArrow=classic;html=1;rounded=0;flipV=1;flipH=1;" edge="1" parent="1">
          <mxGeometry width="50" height="50" relative="1" as="geometry">
            <mxPoint x="400" y="240" as="sourcePoint" />
            <mxPoint x="720" y="240" as="targetPoint" />
          </mxGeometry>
        </mxCell>
        <mxCell id="WkEdtH8r3RqwmbnHuu7d-33" value="4-pušu rokasspiediena pirmā ziņa" style="text;html=1;align=center;verticalAlign=middle;whiteSpace=wrap;rounded=0;flipV=1;flipH=1;" vertex="1" parent="1">
          <mxGeometry x="400" y="210" width="320" height="30" as="geometry" />
        </mxCell>
        <mxCell id="WkEdtH8r3RqwmbnHuu7d-34" value="" style="rounded=1;whiteSpace=wrap;html=1;" vertex="1" parent="1">
          <mxGeometry x="340" y="250" width="120" height="60" as="geometry" />
        </mxCell>
        <mxCell id="WkEdtH8r3RqwmbnHuu7d-35" value="Notver PMKID, kas ir rokasspiediena ziņā" style="text;html=1;align=center;verticalAlign=middle;whiteSpace=wrap;rounded=0;" vertex="1" parent="1">
          <mxGeometry x="340" y="250" width="120" height="60" as="geometry" />
        </mxCell>
        <mxCell id="WkEdtH8r3RqwmbnHuu7d-36" value="" style="endArrow=classic;html=1;rounded=0;" edge="1" parent="1">
          <mxGeometry width="50" height="50" relative="1" as="geometry">
            <mxPoint x="400" y="320" as="sourcePoint" />
            <mxPoint x="720" y="320" as="targetPoint" />
          </mxGeometry>
        </mxCell>
        <mxCell id="WkEdtH8r3RqwmbnHuu7d-37" value="Deautentifikācija" style="text;html=1;align=center;verticalAlign=middle;whiteSpace=wrap;rounded=0;" vertex="1" parent="1">
          <mxGeometry x="400" y="290" width="320" height="30" as="geometry" />
        </mxCell>
        <mxCell id="WkEdtH8r3RqwmbnHuu7d-38" value="" style="endArrow=classic;html=1;rounded=0;" edge="1" parent="1">
          <mxGeometry width="50" height="50" relative="1" as="geometry">
            <mxPoint x="400" y="360" as="sourcePoint" />
            <mxPoint x="80" y="360" as="targetPoint" />
          </mxGeometry>
        </mxCell>
        <mxCell id="WkEdtH8r3RqwmbnHuu7d-39" value="Paziņo, ka no konkrētā AP notverts PMKID, sāk uzlaušanu" style="text;html=1;align=center;verticalAlign=middle;whiteSpace=wrap;rounded=0;flipV=1;flipH=1;" vertex="1" parent="1">
          <mxGeometry x="80" y="330" width="320" height="30" as="geometry" />
        </mxCell>
        <mxCell id="WkEdtH8r3RqwmbnHuu7d-40" value="" style="rounded=1;whiteSpace=wrap;html=1;" vertex="1" parent="1">
          <mxGeometry x="340" y="370" width="120" height="60" as="geometry" />
        </mxCell>
        <mxCell id="WkEdtH8r3RqwmbnHuu7d-41" value="Mēģina uzlauzt PMKID" style="text;html=1;align=center;verticalAlign=middle;whiteSpace=wrap;rounded=0;" vertex="1" parent="1">
          <mxGeometry x="340" y="370" width="120" height="60" as="geometry" />
        </mxCell>
        <mxCell id="WkEdtH8r3RqwmbnHuu7d-42" value="Ja izdodas" style="shape=umlFrame;whiteSpace=wrap;html=1;pointerEvents=0;" vertex="1" parent="1">
          <mxGeometry x="60" y="460" width="350" height="70" as="geometry" />
        </mxCell>
        <mxCell id="WkEdtH8r3RqwmbnHuu7d-50" value="" style="endArrow=classic;html=1;rounded=0;" edge="1" parent="1">
          <mxGeometry width="50" height="50" relative="1" as="geometry">
            <mxPoint x="400" y="600" as="sourcePoint" />
            <mxPoint x="80" y="600" as="targetPoint" />
          </mxGeometry>
        </mxCell>
        <mxCell id="WkEdtH8r3RqwmbnHuu7d-51" value="Paziņo, ka nav izdevies" style="text;html=1;align=center;verticalAlign=middle;whiteSpace=wrap;rounded=0;flipV=1;flipH=1;" vertex="1" parent="1">
          <mxGeometry x="80" y="570" width="320" height="30" as="geometry" />
        </mxCell>
        <mxCell id="WkEdtH8r3RqwmbnHuu7d-52" value="Ja neizdodas" style="shape=umlFrame;whiteSpace=wrap;html=1;pointerEvents=0;" vertex="1" parent="1">
          <mxGeometry x="60" y="540" width="350" height="70" as="geometry" />
        </mxCell>
      </root>
    </mxGraphModel>
  </diagram>
</mxfile>
